<svg xmlns="http://www.w3.org/2000/svg" width="34.875" height="34.875" viewBox="0 0 34.875 34.875">
  <path id="Icon_awesome-creative-commons" data-name="Icon awesome-creative-commons" d="M17.285,15.108l-2.336,1.215a2.184,2.184,0,0,0-1.931-1.4q-2.334,0-2.336,3.082c0,1.657.648,3.083,2.336,3.083a2.185,2.185,0,0,0,2.149-1.495l2.148,1.09a5.147,5.147,0,0,1-4.577,2.741c-1.589,0-5.2-.726-5.2-5.418,0-4.127,3.023-5.418,5.107-5.418a4.887,4.887,0,0,1,4.64,2.521Zm10.058,0-2.3,1.215a2.194,2.194,0,0,0-1.962-1.4q-2.335,0-2.336,3.082c0,1.656.649,3.083,2.336,3.083a2.182,2.182,0,0,0,2.147-1.495l2.18,1.09a5.275,5.275,0,0,1-4.577,2.741c-1.6,0-5.2-.694-5.2-5.418,0-4.125,3.021-5.418,5.107-5.418a4.82,4.82,0,0,1,4.61,2.521ZM17.407.566a17.438,17.438,0,0,0,0,34.875A17.317,17.317,0,0,0,34.875,18,17.21,17.21,0,0,0,17.407.566Zm.061,31.7A14.392,14.392,0,0,1,3.145,18,14.352,14.352,0,0,1,17.469,3.711a14.276,14.276,0,0,1,0,28.553Z" transform="translate(0 -0.566)"/>
</svg>
